<?xml version="1.0" standalone="no"?>
<!DOCTYPE svg PUBLIC "-//W3C//DTD SVG 20010904//EN"
 "http://www.w3.org/TR/2001/REC-SVG-20010904/DTD/svg10.dtd">
<svg version="1.0" xmlns="http://www.w3.org/2000/svg"
 width="1280.000000pt" height="1253.000000pt" viewBox="0 0 1280.000000 1253.000000"
 preserveAspectRatio="xMidYMid meet">
<metadata>
Created by potrace 1.15, written by Peter Selinger 2001-2017
</metadata>
<g transform="translate(0.000000,1253.000000) scale(0.100000,-0.100000)"
fill="#8bc34a" stroke="none">
<path d="M12010 12523 c-684 -73 -1764 -825 -3384 -2358 -1193 -1128 -2995
-3055 -4284 -4582 l-154 -181 -151 79 c-805 422 -1574 773 -2097 957 -512 180
-860 251 -1165 239 -170 -7 -264 -29 -395 -93 -77 -39 -109 -62 -175 -128
-127 -127 -189 -270 -202 -462 -5 -76 -2 -102 15 -160 29 -91 56 -123 312
-361 415 -386 896 -885 1231 -1278 791 -926 1573 -2094 2509 -3745 166 -293
199 -341 257 -381 142 -98 318 -88 449 24 53 46 85 108 183 355 461 1155 1080
2472 1658 3532 1043 1910 2180 3546 3508 5045 505 570 961 1038 1785 1831 658
632 790 784 861 991 90 262 -41 514 -323 623 -127 49 -289 69 -438 53z"/>
</g>
</svg>
